<svg width="32" height="33" viewBox="0 0 32 33" fill="none" xmlns="http://www.w3.org/2000/svg">
<path d="M14.4784 6.48448C14.9573 5.01038 17.0428 5.01038 17.5217 6.48448L19.233 11.7514C19.4472 12.4106 20.0616 12.8569 20.7547 12.8569H26.2927C27.8426 12.8569 28.4871 14.8403 27.2331 15.7514L22.7528 19.0065C22.1921 19.4139 21.9574 20.1361 22.1716 20.7953L23.8829 26.0622C24.3619 27.5363 22.6747 28.7621 21.4208 27.851L16.9405 24.5959C16.3797 24.1885 15.6204 24.1885 15.0596 24.5959L10.5793 27.851C9.32538 28.7621 7.63821 27.5363 8.11717 26.0622L9.82848 20.7953C10.0427 20.1361 9.80803 19.4139 9.24725 19.0065L4.76698 15.7514C3.51304 14.8403 4.15748 12.8569 5.70744 12.8569H11.2454C11.9385 12.8569 12.5528 12.4106 12.767 11.7514L14.4784 6.48448Z" fill="#F97316"/>
</svg>
